<svg
    width="16"
    height="16"
    viewBox="0 0 20 20"
    fill="none"
    xmlns="http://www.w3.org/2000/svg"
>
    <path
        fill-rule="evenodd"
        clip-rule="evenodd"
        d="M12.4207 13.6C11.2918 14.4775 9.87327 15.0001 8.33268 15.0001C4.65078 15.0001 1.66602 12.0153 1.66602 8.33342C1.66602 4.65152 4.65078 1.66675 8.33268 1.66675C12.0146 1.66675 14.9993 4.65152 14.9993 8.33342C14.9993 9.87401 14.4768 11.2925 13.5992 12.4215L18.0886 16.9108C18.414 17.2363 18.414 17.7639 18.0886 18.0893C17.7632 18.4148 17.2355 18.4148 16.9101 18.0893L12.4207 13.6ZM13.3327 8.33342C13.3327 11.0948 11.0941 13.3334 8.33268 13.3334C5.57126 13.3334 3.33268 11.0948 3.33268 8.33342C3.33268 5.57199 5.57126 3.33341 8.33268 3.33341C11.0941 3.33341 13.3327 5.57199 13.3327 8.33342Z"
        fill="#777E91"
    ></path>
</svg>