<svg xmlns="http://www.w3.org/2000/svg" width="25" height="24" viewBox="0 0 25 24" fill="none">
  <path fill-rule="evenodd" clip-rule="evenodd" d="M20.3398 5H4.33984C3.78756 5 3.33984 5.44772 3.33984 6V18C3.33984 18.5523 3.78756 19 4.33984 19H20.3398C20.8921 19 21.3398 18.5523 21.3398 18V6C21.3398 5.44772 20.8921 5 20.3398 5ZM4.33984 3C2.68299 3 1.33984 4.34315 1.33984 6V18C1.33984 19.6569 2.68299 21 4.33984 21H20.3398C21.9967 21 23.3398 19.6569 23.3398 18V6C23.3398 4.34315 21.9967 3 20.3398 3H4.33984Z" fill="white"/>
  <path fill-rule="evenodd" clip-rule="evenodd" d="M5.57165 7.35984C5.92521 6.93556 6.55578 6.87824 6.98005 7.2318L11.6997 11.1648C12.0705 11.4739 12.6092 11.4739 12.9801 11.1648L17.6997 7.2318C18.124 6.87824 18.7545 6.93556 19.1081 7.35984C19.4617 7.78412 19.4043 8.41468 18.9801 8.76825L14.2604 12.7013C13.1479 13.6284 11.5319 13.6284 10.4193 12.7013L5.69968 8.76825C5.27541 8.41468 5.21808 7.78412 5.57165 7.35984Z" fill="white"/>
</svg>